<svg xmlns="http://www.w3.org/2000/svg" viewBox="0 0 100 100">
  <circle cx="50" cy="50" r="48" fill="none" stroke="#1C69D2" stroke-width="3"/>
  <circle cx="50" cy="50" r="42" fill="#0A0A0F"/>
  <path d="M50 8 L50 50 L92 50" fill="none" stroke="#1C69D2" stroke-width="1"/>
  <path d="M50 8 L50 50 L8 50" fill="none" stroke="#FFFFFF" stroke-width="1"/>
  <path d="M50 92 L50 50 L8 50" fill="none" stroke="#1C69D2" stroke-width="1"/>
  <path d="M50 92 L50 50 L92 50" fill="none" stroke="#FFFFFF" stroke-width="1"/>
  <path d="M50 8 A42 42 0 0 1 92 50 L50 50 Z" fill="#1C69D2"/>
  <path d="M50 50 L92 50 A42 42 0 0 1 50 92 Z" fill="#FFFFFF"/>
  <path d="M50 92 A42 42 0 0 1 8 50 L50 50 Z" fill="#1C69D2"/>
  <path d="M50 50 L8 50 A42 42 0 0 1 50 8 Z" fill="#FFFFFF"/>
  <circle cx="50" cy="50" r="12" fill="#0A0A0F"/>
  <text x="50" y="56" text-anchor="middle" fill="#1C69D2" font-family="Arial" font-size="10" font-weight="bold">i</text>
</svg>
